<?xml version="1.0" encoding="UTF-8"?>
<svg width="700pt" height="700pt" version="1.1" viewBox="0 0 700 700" xmlns="http://www.w3.org/2000/svg" xmlns:xlink="http://www.w3.org/1999/xlink">
 <defs>
  <symbol id="z" overflow="visible">
   <path d="m8.4219-0.5c-0.42969 0.21875-0.88281 0.38672-1.3594 0.5-0.46875 0.11328-0.96094 0.17188-1.4688 0.17188-1.5312 0-2.7461-0.42578-3.6406-1.2812-0.88672-0.85156-1.3281-2.0078-1.3281-3.4688 0-1.4688 0.44141-2.625 1.3281-3.4688 0.89453-0.85156 2.1094-1.2812 3.6406-1.2812 0.50781 0 1 0.058594 1.4688 0.17188 0.47656 0.11719 0.92969 0.28125 1.3594 0.5v1.9062c-0.4375-0.30078-0.87109-0.51953-1.2969-0.65625-0.42969-0.14453-0.875-0.21875-1.3438-0.21875-0.84375 0-1.5078 0.27344-1.9844 0.8125-0.48047 0.54297-0.71875 1.2891-0.71875 2.2344 0 0.94922 0.23828 1.6953 0.71875 2.2344 0.47656 0.54297 1.1406 0.8125 1.9844 0.8125 0.46875 0 0.91406-0.066406 1.3438-0.20312 0.42578-0.14453 0.85938-0.36719 1.2969-0.67188z"/>
  </symbol>
  <symbol id="c" overflow="visible">
   <path d="m6.1719-5c-0.19922-0.09375-0.39062-0.16016-0.57812-0.20312-0.1875-0.039063-0.38281-0.0625-0.57812-0.0625-0.5625 0-1 0.18359-1.3125 0.54688-0.30469 0.35547-0.45312 0.87109-0.45312 1.5469v3.1719h-2.1875v-6.875h2.1875v1.125c0.28125-0.44531 0.60156-0.77344 0.96875-0.98438 0.375-0.20703 0.81641-0.3125 1.3281-0.3125 0.070313 0 0.14844 0.007813 0.23438 0.015625 0.09375 0 0.21875 0.011719 0.375 0.03125z"/>
  </symbol>
  <symbol id="a" overflow="visible">
   <path d="m7.9219-3.4531v0.625h-5.1406c0.050781 0.51172 0.23438 0.89844 0.54688 1.1562 0.32031 0.26172 0.77344 0.39062 1.3594 0.39062 0.45703 0 0.92578-0.066406 1.4062-0.20312 0.48828-0.13281 0.98828-0.34375 1.5-0.625v1.6875c-0.52344 0.19922-1.043 0.34375-1.5625 0.4375-0.52344 0.10156-1.0391 0.15625-1.5469 0.15625-1.25 0-2.2188-0.3125-2.9062-0.9375-0.6875-0.63281-1.0312-1.5234-1.0312-2.6719 0-1.1133 0.33594-1.9922 1.0156-2.6406 0.67578-0.64453 1.6094-0.96875 2.7969-0.96875 1.0703 0 1.9297 0.32812 2.5781 0.98438 0.65625 0.64844 0.98438 1.5156 0.98438 2.6094zm-2.2656-0.73438c0-0.41406-0.12109-0.75-0.35938-1-0.24219-0.25781-0.55859-0.39062-0.95312-0.39062-0.42969 0-0.77734 0.12109-1.0469 0.35938-0.26172 0.24219-0.42188 0.58594-0.48438 1.0312z"/>
  </symbol>
  <symbol id="e" overflow="visible">
   <path d="m4.1406-3.0938c-0.46094 0-0.80859 0.078125-1.0469 0.23438-0.23047 0.15625-0.34375 0.38672-0.34375 0.6875 0 0.28125 0.09375 0.5 0.28125 0.65625s0.44531 0.23438 0.78125 0.23438c0.41406 0 0.76562-0.14453 1.0469-0.4375 0.28125-0.30078 0.42188-0.67578 0.42188-1.125v-0.25zm3.3594-0.82812v3.9219h-2.2188v-1.0156c-0.29297 0.41797-0.625 0.71875-1 0.90625-0.36719 0.1875-0.8125 0.28125-1.3438 0.28125-0.71094 0-1.2891-0.20312-1.7344-0.60938-0.4375-0.41406-0.65625-0.95703-0.65625-1.625 0-0.8125 0.27344-1.4062 0.82812-1.7812 0.55078-0.375 1.4219-0.5625 2.6094-0.5625h1.2969v-0.17188c0-0.34375-0.14062-0.59375-0.42188-0.75-0.27344-0.16406-0.69531-0.25-1.2656-0.25-0.48047 0-0.92188 0.046875-1.3281 0.14062-0.39844 0.09375-0.77344 0.23438-1.125 0.42188v-1.6719c0.46875-0.11328 0.94141-0.20312 1.4219-0.26562 0.47656-0.0625 0.95312-0.09375 1.4219-0.09375 1.2383 0 2.1328 0.24609 2.6875 0.73438 0.55078 0.49219 0.82812 1.2891 0.82812 2.3906z"/>
  </symbol>
  <symbol id="d" overflow="visible">
   <path d="m3.4531-8.8281v1.9531h2.2656v1.5625h-2.2656v2.9219c0 0.32422 0.0625 0.54297 0.1875 0.65625 0.13281 0.10547 0.39062 0.15625 0.76562 0.15625h1.125v1.5781h-1.8906c-0.86719 0-1.4805-0.17969-1.8438-0.54688-0.35547-0.36328-0.53125-0.97656-0.53125-1.8438v-2.9219h-1.0938v-1.5625h1.0938v-1.9531z"/>
  </symbol>
  <symbol id="l" overflow="visible">
   <path d="m5.7344-5.875v-3.6875h2.2188v9.5625h-2.2188v-1c-0.30469 0.40625-0.63672 0.70312-1 0.89062-0.36719 0.1875-0.78906 0.28125-1.2656 0.28125-0.84375 0-1.543-0.33203-2.0938-1-0.54297-0.67578-0.8125-1.5469-0.8125-2.6094s0.26953-1.9258 0.8125-2.5938c0.55078-0.67578 1.25-1.0156 2.0938-1.0156 0.47656 0 0.89844 0.10156 1.2656 0.29688 0.36328 0.1875 0.69531 0.48047 1 0.875zm-1.4531 4.4531c0.47656 0 0.83594-0.17188 1.0781-0.51562 0.25-0.34375 0.375-0.84375 0.375-1.5s-0.125-1.1562-0.375-1.5c-0.24219-0.34375-0.60156-0.51562-1.0781-0.51562-0.46094 0-0.8125 0.17188-1.0625 0.51562s-0.375 0.84375-0.375 1.5 0.125 1.1562 0.375 1.5 0.60156 0.51562 1.0625 0.51562z"/>
  </symbol>
  <symbol id="k" overflow="visible">
   <path d="m4.7188-1.4219c0.46875 0 0.82812-0.17188 1.0781-0.51562s0.375-0.84375 0.375-1.5-0.125-1.1562-0.375-1.5-0.60938-0.51562-1.0781-0.51562-0.83594 0.17969-1.0938 0.53125c-0.25 0.34375-0.375 0.83984-0.375 1.4844 0 0.65625 0.125 1.1562 0.375 1.5 0.25781 0.34375 0.625 0.51562 1.0938 0.51562zm-1.4688-4.4531c0.30078-0.39453 0.63281-0.6875 1-0.875 0.375-0.19531 0.80078-0.29688 1.2812-0.29688 0.85156 0 1.5508 0.33984 2.0938 1.0156 0.53906 0.66797 0.8125 1.5312 0.8125 2.5938s-0.27344 1.9336-0.8125 2.6094c-0.54297 0.66797-1.2422 1-2.0938 1-0.48047 0-0.90625-0.09375-1.2812-0.28125-0.36719-0.1875-0.69922-0.48438-1-0.89062v1h-2.1875v-9.5625h2.1875z"/>
  </symbol>
  <symbol id="j" overflow="visible">
   <path d="m0.15625-6.875h2.2031l1.8438 4.6562 1.5625-4.6562h2.2031l-2.8906 7.5312c-0.29297 0.75781-0.63281 1.2891-1.0156 1.5938-0.38672 0.3125-0.89844 0.46875-1.5312 0.46875h-1.2656v-1.4531h0.6875c0.36328 0 0.62891-0.058594 0.79688-0.17188 0.17578-0.11719 0.3125-0.32812 0.40625-0.64062l0.0625-0.1875z"/>
  </symbol>
  <symbol id="i" overflow="visible">
   <path d="m7.5312-8.875v1.9375c-0.5-0.22656-0.99219-0.39844-1.4688-0.51562-0.48047-0.11328-0.93359-0.17188-1.3594-0.17188-0.5625 0-0.98047 0.078125-1.25 0.23438-0.27344 0.15625-0.40625 0.40234-0.40625 0.73438 0 0.24219 0.085937 0.42969 0.26562 0.5625 0.1875 0.13672 0.51953 0.25781 1 0.35938l1 0.20312c1.0195 0.21094 1.7422 0.52344 2.1719 0.9375 0.4375 0.41797 0.65625 1.0117 0.65625 1.7812 0 1.0117-0.30469 1.7617-0.90625 2.25-0.59375 0.49219-1.5117 0.73438-2.75 0.73438-0.57422 0-1.1562-0.058594-1.75-0.17188-0.58594-0.10156-1.168-0.26562-1.75-0.48438v-1.9844c0.58203 0.30469 1.1445 0.53906 1.6875 0.70312 0.55078 0.15625 1.082 0.23438 1.5938 0.23438 0.50781 0 0.89844-0.082031 1.1719-0.25 0.28125-0.17578 0.42188-0.42578 0.42188-0.75 0-0.28125-0.09375-0.5-0.28125-0.65625s-0.55859-0.29688-1.1094-0.42188l-0.92188-0.20312c-0.91797-0.19531-1.5898-0.50781-2.0156-0.9375-0.41797-0.4375-0.625-1.0156-0.625-1.7344 0-0.91406 0.28906-1.6172 0.875-2.1094 0.59375-0.48828 1.4414-0.73438 2.5469-0.73438 0.5 0 1.0156 0.039063 1.5469 0.10938 0.53906 0.074219 1.0938 0.1875 1.6562 0.34375z"/>
  </symbol>
  <symbol id="b" overflow="visible">
   <path d="m4.3281-5.4688c-0.49219 0-0.86719 0.17969-1.125 0.53125-0.25 0.34375-0.375 0.84375-0.375 1.5 0 0.66797 0.125 1.1797 0.375 1.5312 0.25781 0.34375 0.63281 0.51562 1.125 0.51562 0.47656 0 0.84375-0.17188 1.0938-0.51562 0.25781-0.35156 0.39062-0.86328 0.39062-1.5312 0-0.65625-0.13281-1.1562-0.39062-1.5-0.25-0.35156-0.61719-0.53125-1.0938-0.53125zm0-1.5781c1.1875 0 2.1094 0.32422 2.7656 0.96875 0.66406 0.63672 1 1.5156 1 2.6406 0 1.1367-0.33594 2.0234-1 2.6562-0.65625 0.63672-1.5781 0.95312-2.7656 0.95312s-2.1172-0.31641-2.7812-0.95312c-0.66797-0.63281-1-1.5195-1-2.6562 0-1.125 0.33203-2.0039 1-2.6406 0.66406-0.64453 1.5938-0.96875 2.7812-0.96875z"/>
  </symbol>
  <symbol id="h" overflow="visible">
   <path d="m5.5781-9.5625v1.4531h-1.2188c-0.30469 0-0.51562 0.058594-0.64062 0.17188-0.125 0.10547-0.1875 0.29688-0.1875 0.57812v0.48438h1.875v1.5625h-1.875v5.3125h-2.2031v-5.3125h-1.0938v-1.5625h1.0938v-0.48438c0-0.75 0.20703-1.3008 0.625-1.6562 0.41406-0.36328 1.0664-0.54688 1.9531-0.54688z"/>
  </symbol>
  <symbol id="g" overflow="visible">
   <path d="m1.0625-6.875h2.1875v6.875h-2.1875zm0-2.6875h2.1875v1.7969h-2.1875z"/>
  </symbol>
  <symbol id="y" overflow="visible">
   <path d="m1.1562-9.1719h6.375v1.7969h-4.0156v1.7031h3.7812v1.7812h-3.7812v2.1094h4.1562v1.7812h-6.5156z"/>
  </symbol>
  <symbol id="x" overflow="visible">
   <path d="m6.4375-6.6562v1.6562c-0.48047-0.1875-0.9375-0.32812-1.375-0.42188-0.4375-0.10156-0.85156-0.15625-1.2344-0.15625-0.41797 0-0.73047 0.054687-0.9375 0.15625-0.19922 0.10547-0.29688 0.26562-0.29688 0.48438 0 0.16797 0.070312 0.30469 0.21875 0.40625 0.15625 0.09375 0.42969 0.16406 0.82812 0.20312l0.39062 0.046875c1.125 0.14844 1.8789 0.38672 2.2656 0.71875 0.39453 0.32422 0.59375 0.83594 0.59375 1.5312 0 0.74219-0.27344 1.293-0.8125 1.6562-0.54297 0.36719-1.3516 0.54688-2.4219 0.54688-0.44922 0-0.91797-0.039063-1.4062-0.10938-0.49219-0.0625-0.99219-0.16406-1.5-0.3125v-1.6719c0.4375 0.21094 0.88281 0.37109 1.3438 0.48438 0.46875 0.10547 0.9375 0.15625 1.4062 0.15625 0.4375 0 0.75781-0.054688 0.96875-0.17188 0.21875-0.125 0.32812-0.30078 0.32812-0.53125 0-0.19531-0.074219-0.34375-0.21875-0.4375-0.14844-0.10156-0.44531-0.17969-0.89062-0.23438l-0.39062-0.046875c-0.98047-0.125-1.668-0.34766-2.0625-0.67188-0.38672-0.33203-0.57812-0.83594-0.57812-1.5156 0-0.72656 0.25-1.2695 0.75-1.625 0.5-0.35156 1.2656-0.53125 2.2969-0.53125 0.40625 0 0.82812 0.03125 1.2656 0.09375 0.44531 0.0625 0.9375 0.16406 1.4688 0.29688z"/>
  </symbol>
  <symbol id="w" overflow="visible">
   <path d="m3.25-1v3.6094h-2.1875v-9.4844h2.1875v1c0.30078-0.39453 0.63281-0.6875 1-0.875 0.375-0.19531 0.80078-0.29688 1.2812-0.29688 0.85156 0 1.5508 0.33984 2.0938 1.0156 0.53906 0.66797 0.8125 1.5312 0.8125 2.5938s-0.27344 1.9336-0.8125 2.6094c-0.54297 0.66797-1.2422 1-2.0938 1-0.48047 0-0.90625-0.09375-1.2812-0.28125-0.36719-0.1875-0.69922-0.48438-1-0.89062zm1.4688-4.4531c-0.46875 0-0.83594 0.17969-1.0938 0.53125-0.25 0.34375-0.375 0.83984-0.375 1.4844 0 0.65625 0.125 1.1562 0.375 1.5 0.25781 0.34375 0.625 0.51562 1.0938 0.51562s0.82812-0.17188 1.0781-0.51562 0.375-0.84375 0.375-1.5-0.125-1.1562-0.375-1.5-0.60938-0.51562-1.0781-0.51562z"/>
  </symbol>
  <symbol id="f" overflow="visible">
   <path d="m7.9688-4.1875v4.1875h-2.2031v-3.2031c0-0.59375-0.015625-1-0.046875-1.2188-0.023438-0.22656-0.070312-0.39844-0.14062-0.51562-0.085937-0.13281-0.19922-0.24219-0.34375-0.32812-0.14844-0.082031-0.3125-0.125-0.5-0.125-0.46094 0-0.82422 0.17969-1.0938 0.53125-0.26172 0.35547-0.39062 0.84375-0.39062 1.4688v3.3906h-2.1875v-6.875h2.1875v1c0.33203-0.39453 0.6875-0.6875 1.0625-0.875 0.375-0.19531 0.78516-0.29688 1.2344-0.29688 0.78906 0 1.3906 0.24609 1.7969 0.73438 0.41406 0.49219 0.625 1.1992 0.625 2.125z"/>
  </symbol>
  <symbol id="v" overflow="visible">
   <path d="m0.6875-4.5156h3.8438v1.7812h-3.8438z"/>
  </symbol>
  <symbol id="u" overflow="visible">
   <path d="m-0.125-9.1719h2.5938l2.0781 3.2656 2.0938-3.2656h2.5938l-3.5 5.3125v3.8594h-2.3594v-3.8594z"/>
  </symbol>
  <symbol id="t" overflow="visible">
   <path d="m5.7344-1.1719c-0.30469 0.40625-0.63672 0.70312-1 0.89062-0.36719 0.1875-0.78906 0.28125-1.2656 0.28125-0.83594 0-1.5273-0.32812-2.0781-0.98438-0.55469-0.66406-0.82812-1.5078-0.82812-2.5312 0-1.0312 0.27344-1.875 0.82812-2.5312 0.55078-0.65625 1.2422-0.98438 2.0781-0.98438 0.47656 0 0.89844 0.09375 1.2656 0.28125 0.36328 0.1875 0.69531 0.48438 1 0.89062v-1.0156h2.2188v6.1875c0 1.1016-0.35156 1.9453-1.0469 2.5312-0.69922 0.58203-1.7148 0.875-3.0469 0.875-0.42969 0-0.84375-0.039062-1.25-0.10938-0.39844-0.0625-0.79688-0.16406-1.2031-0.29688v-1.7031c0.38281 0.21875 0.75781 0.37891 1.125 0.48438 0.375 0.11328 0.74219 0.17188 1.1094 0.17188 0.72656 0 1.2578-0.16406 1.5938-0.48438 0.33203-0.3125 0.5-0.80078 0.5-1.4688zm-1.4531-4.2812c-0.44922 0-0.80469 0.17188-1.0625 0.51562-0.25 0.33594-0.375 0.80859-0.375 1.4219 0 0.625 0.11719 1.1055 0.35938 1.4375 0.25 0.32422 0.60938 0.48438 1.0781 0.48438 0.45703 0 0.8125-0.16406 1.0625-0.5 0.25781-0.34375 0.39062-0.81641 0.39062-1.4219 0-0.61328-0.13281-1.0859-0.39062-1.4219-0.25-0.34375-0.60547-0.51562-1.0625-0.51562z"/>
  </symbol>
  <symbol id="s" overflow="visible">
   <path d="m7.4375-5.7344c0.26953-0.42578 0.59766-0.75 0.98438-0.96875 0.38281-0.22656 0.80469-0.34375 1.2656-0.34375 0.78906 0 1.3906 0.24609 1.7969 0.73438 0.41406 0.49219 0.625 1.1992 0.625 2.125v4.1875h-2.2031v-3.5938-0.15625-0.25c0-0.48828-0.074219-0.84375-0.21875-1.0625-0.13672-0.21875-0.36719-0.32812-0.6875-0.32812-0.41797 0-0.74219 0.17188-0.96875 0.51562-0.21875 0.34375-0.33594 0.84375-0.34375 1.5v3.375h-2.2188v-3.5938c0-0.75781-0.070312-1.25-0.20312-1.4688-0.125-0.21875-0.35547-0.32812-0.6875-0.32812-0.42969 0-0.75781 0.17969-0.98438 0.53125-0.23047 0.34375-0.34375 0.83594-0.34375 1.4688v3.3906h-2.2031v-6.875h2.2031v1c0.26953-0.38281 0.57812-0.67578 0.92188-0.875 0.35156-0.19531 0.74219-0.29688 1.1719-0.29688 0.47656 0 0.89844 0.11719 1.2656 0.34375 0.36328 0.23047 0.64062 0.55469 0.82812 0.96875z"/>
  </symbol>
  <symbol id="r" overflow="visible">
   <path d="m7.9688-4.1875v4.1875h-2.2031v-3.1875c0-0.60156-0.015625-1.0156-0.046875-1.2344-0.023438-0.22656-0.070312-0.39844-0.14062-0.51562-0.085937-0.13281-0.19922-0.24219-0.34375-0.32812-0.14844-0.082031-0.3125-0.125-0.5-0.125-0.46094 0-0.82422 0.17969-1.0938 0.53125-0.26172 0.35547-0.39062 0.84375-0.39062 1.4688v3.3906h-2.1875v-9.5625h2.1875v3.6875c0.33203-0.39453 0.6875-0.6875 1.0625-0.875 0.375-0.19531 0.78516-0.29688 1.2344-0.29688 0.78906 0 1.3906 0.24609 1.7969 0.73438 0.41406 0.49219 0.625 1.1992 0.625 2.125z"/>
  </symbol>
  <symbol id="q" overflow="visible">
   <path d="m1.1562-9.1719h2.6406l3.3281 6.2969v-6.2969h2.25v9.1719h-2.6406l-3.3438-6.2969v6.2969h-2.2344z"/>
  </symbol>
  <symbol id="p" overflow="visible">
   <path d="m0.98438-2.6719v-4.2031h2.2031v0.6875 1.4062 1.125c0 0.55469 0.007812 0.95312 0.03125 1.2031 0.03125 0.24219 0.082031 0.41406 0.15625 0.51562 0.082031 0.14844 0.19531 0.26172 0.34375 0.34375 0.14453 0.074219 0.3125 0.10938 0.5 0.10938 0.45703 0 0.81641-0.17578 1.0781-0.53125 0.26953-0.35156 0.40625-0.84375 0.40625-1.4688v-3.3906h2.1875v6.875h-2.1875v-1c-0.33594 0.40625-0.6875 0.70312-1.0625 0.89062-0.36719 0.1875-0.77344 0.28125-1.2188 0.28125-0.79297 0-1.3984-0.23828-1.8125-0.71875-0.41797-0.48828-0.625-1.1953-0.625-2.125z"/>
  </symbol>
  <symbol id="o" overflow="visible">
   <path d="m1.1562-9.1719h3.9219c1.1641 0 2.0625 0.26172 2.6875 0.78125 0.625 0.52344 0.9375 1.2617 0.9375 2.2188 0 0.96094-0.3125 1.6992-0.9375 2.2188-0.625 0.51172-1.5234 0.76562-2.6875 0.76562h-1.5625v3.1875h-2.3594zm2.3594 1.7188v2.5625h1.3125c0.45703 0 0.8125-0.10938 1.0625-0.32812 0.25-0.22656 0.375-0.54688 0.375-0.95312 0-0.41406-0.125-0.73438-0.375-0.95312s-0.60547-0.32812-1.0625-0.32812z"/>
  </symbol>
  <symbol id="n" overflow="visible">
   <path d="m1.0625-6.875h2.1875v6.75c0 0.92578-0.22656 1.6289-0.67188 2.1094-0.4375 0.48828-1.0742 0.73438-1.9062 0.73438h-1.0938v-1.4531h0.39062c0.41406 0 0.70312-0.09375 0.85938-0.28125s0.23438-0.55859 0.23438-1.1094zm0-2.6875h2.1875v1.7969h-2.1875z"/>
  </symbol>
  <symbol id="m" overflow="visible">
   <path d="m6.6094-6.6562v1.7812c-0.29297-0.19531-0.58984-0.34375-0.89062-0.4375-0.30469-0.10156-0.61719-0.15625-0.9375-0.15625-0.61719 0-1.0938 0.18359-1.4375 0.54688-0.34375 0.35547-0.51562 0.85156-0.51562 1.4844 0 0.64844 0.17188 1.1523 0.51562 1.5156 0.34375 0.35547 0.82031 0.53125 1.4375 0.53125 0.34375 0 0.66406-0.050781 0.96875-0.15625 0.3125-0.10156 0.59766-0.25391 0.85938-0.45312v1.7969c-0.34375 0.125-0.69531 0.21875-1.0469 0.28125-0.35547 0.0625-0.71094 0.09375-1.0625 0.09375-1.2422 0-2.2109-0.31641-2.9062-0.95312-0.69922-0.63281-1.0469-1.5195-1.0469-2.6562 0-1.1328 0.34766-2.0195 1.0469-2.6562 0.69531-0.63281 1.6641-0.95312 2.9062-0.95312 0.36328 0 0.71875 0.03125 1.0625 0.09375 0.35156 0.0625 0.70312 0.16406 1.0469 0.29688z"/>
  </symbol>
 </defs>
 <g>
  <path transform="matrix(2.5169 0 0 2.5169 487.55 -718.56)" d="m-9.2995 360.1c0 25-20.301 45.299-45.299 45.299-25 0-45.4-20.301-45.4-45.299 0-25 20.301-45.299 45.299-45.299 25-0.001552 45.4 20.299 45.4 45.299z" stroke="#000" stroke-miterlimit="10" stroke-width="9"/>
  <path transform="matrix(2.5169 0 0 2.5169 487.55 -718.56)" d="m29.401 479.8h-168.1s-8.3996-33.699 18.7-47.8c5.8-3.0001 12.3-4.1998 18.8-4.1998h93.1c6.4999 0 13 1.1997 18.8 4.1998 27.099 14.1 18.699 47.8 18.699 47.8zm0 0" stroke="#000" stroke-linecap="round" stroke-miterlimit="10" stroke-width="9"/>
  <use x="34.511719" y="597.753906" xlink:href="#z"/>
  <use x="43.746094" y="597.753906" xlink:href="#c"/>
  <use x="49.953125" y="597.753906" xlink:href="#a"/>
  <use x="58.488281" y="597.753906" xlink:href="#e"/>
  <use x="66.980469" y="597.753906" xlink:href="#d"/>
  <use x="72.996094" y="597.753906" xlink:href="#a"/>
  <use x="81.53125" y="597.753906" xlink:href="#l"/>
  <use x="94.921875" y="597.753906" xlink:href="#k"/>
  <use x="103.929688" y="597.753906" xlink:href="#j"/>
  <use x="116.511719" y="597.753906" xlink:href="#i"/>
  <use x="125.578125" y="597.753906" xlink:href="#b"/>
  <use x="134.222656" y="597.753906" xlink:href="#h"/>
  <use x="139.695312" y="597.753906" xlink:href="#g"/>
  <use x="144.011719" y="597.753906" xlink:href="#e"/>
  <use x="156.882813" y="597.753906" xlink:href="#y"/>
  <use x="165.480469" y="597.753906" xlink:href="#x"/>
  <use x="172.96875" y="597.753906" xlink:href="#w"/>
  <use x="181.976563" y="597.753906" xlink:href="#g"/>
  <use x="186.292969" y="597.753906" xlink:href="#f"/>
  <use x="195.25" y="597.753906" xlink:href="#b"/>
  <use x="203.894531" y="597.753906" xlink:href="#v"/>
  <use x="209.117188" y="597.753906" xlink:href="#u"/>
  <use x="218.230469" y="597.753906" xlink:href="#e"/>
  <use x="226.722656" y="597.753906" xlink:href="#a"/>
  <use x="235.257813" y="597.753906" xlink:href="#t"/>
  <use x="244.265625" y="597.753906" xlink:href="#a"/>
  <use x="252.800781" y="597.753906" xlink:href="#c"/>
  <use x="34.511719" y="610.335937" xlink:href="#h"/>
  <use x="39.988281" y="610.335937" xlink:href="#c"/>
  <use x="46.195313" y="610.335937" xlink:href="#b"/>
  <use x="54.839844" y="610.335937" xlink:href="#s"/>
  <use x="72.332031" y="610.335937" xlink:href="#d"/>
  <use x="78.347656" y="610.335937" xlink:href="#r"/>
  <use x="87.308594" y="610.335937" xlink:href="#a"/>
  <use x="100.222656" y="610.335937" xlink:href="#q"/>
  <use x="110.753906" y="610.335937" xlink:href="#b"/>
  <use x="119.402344" y="610.335937" xlink:href="#p"/>
  <use x="128.359375" y="610.335937" xlink:href="#f"/>
  <use x="141.699219" y="610.335937" xlink:href="#o"/>
  <use x="150.921875" y="610.335937" xlink:href="#c"/>
  <use x="157.128906" y="610.335937" xlink:href="#b"/>
  <use x="165.773438" y="610.335937" xlink:href="#n"/>
  <use x="170.089844" y="610.335937" xlink:href="#a"/>
  <use x="178.625" y="610.335937" xlink:href="#m"/>
  <use x="186.082031" y="610.335937" xlink:href="#d"/>
 </g>
</svg>
